<mxfile host="app.diagrams.net" modified="2023-05-26T08:48:37.778Z" agent="Mozilla/5.0 (Windows NT 10.0; Win64; x64) AppleWebKit/537.36 (KHTML, like Gecko) Chrome/113.0.0.0 Safari/537.36" etag="0FOXx8NVFoU8xANvoO9-" version="21.3.4" type="device">
  <diagram name="Page-1" id="2YBvvXClWsGukQMizWep">
    <mxGraphModel dx="1195" dy="637" grid="0" gridSize="10" guides="1" tooltips="1" connect="1" arrows="1" fold="1" page="1" pageScale="1" pageWidth="850" pageHeight="1100" math="0" shadow="0">
      <root>
        <mxCell id="0" />
        <mxCell id="1" parent="0" />
        <mxCell id="NsC5bOykcp2ZfEjEzcXH-65" value="Présence&lt;br&gt;accessToken" style="shape=umlFrame;whiteSpace=wrap;html=1;pointerEvents=0;width=90;height=30;rounded=1;fillColor=#CCFFCC;shadow=0;" parent="1" vertex="1">
          <mxGeometry x="40" y="160" width="760" height="60" as="geometry" />
        </mxCell>
        <mxCell id="NsC5bOykcp2ZfEjEzcXH-70" value="Pas de&lt;br&gt;accessToken" style="shape=umlFrame;whiteSpace=wrap;html=1;pointerEvents=0;width=90;height=30;rounded=1;fillColor=#FFCCCC;shadow=0;" parent="1" vertex="1">
          <mxGeometry x="40" y="220" width="760" height="360" as="geometry" />
        </mxCell>
        <mxCell id="NsC5bOykcp2ZfEjEzcXH-79" value="Pas de&lt;br&gt;refreshToken" style="shape=umlFrame;whiteSpace=wrap;html=1;pointerEvents=0;width=90;height=30;rounded=1;fillColor=#FF9999;shadow=0;" parent="1" vertex="1">
          <mxGeometry x="50" y="360" width="730" height="60" as="geometry" />
        </mxCell>
        <mxCell id="NsC5bOykcp2ZfEjEzcXH-86" value="Présence&lt;br&gt;refreshToken" style="shape=umlFrame;whiteSpace=wrap;html=1;pointerEvents=0;width=90;height=30;rounded=1;fillColor=#99FF99;shadow=0;" parent="1" vertex="1">
          <mxGeometry x="50" y="420" width="730" height="120" as="geometry" />
        </mxCell>
        <mxCell id="NsC5bOykcp2ZfEjEzcXH-53" value="Visiteur" style="shape=umlLifeline;perimeter=lifelinePerimeter;whiteSpace=wrap;html=1;container=1;dropTarget=0;collapsible=0;recursiveResize=0;outlineConnect=0;portConstraint=eastwest;newEdgeStyle={&quot;edgeStyle&quot;:&quot;elbowEdgeStyle&quot;,&quot;elbow&quot;:&quot;vertical&quot;,&quot;curved&quot;:0,&quot;rounded&quot;:0};size=40;rounded=1;fillColor=#7EA6E0;" parent="1" vertex="1">
          <mxGeometry x="80" y="40" width="120" height="540" as="geometry" />
        </mxCell>
        <mxCell id="NsC5bOykcp2ZfEjEzcXH-54" value="Front-end&lt;br&gt;(ReactJs)" style="shape=umlLifeline;perimeter=lifelinePerimeter;whiteSpace=wrap;html=1;container=1;dropTarget=0;collapsible=0;recursiveResize=0;outlineConnect=0;portConstraint=eastwest;newEdgeStyle={&quot;edgeStyle&quot;:&quot;elbowEdgeStyle&quot;,&quot;elbow&quot;:&quot;vertical&quot;,&quot;curved&quot;:0,&quot;rounded&quot;:0};size=40;rounded=1;fillColor=#CCFFFF;" parent="1" vertex="1">
          <mxGeometry x="280" y="40" width="120" height="540" as="geometry" />
        </mxCell>
        <mxCell id="NsC5bOykcp2ZfEjEzcXH-55" value="" style="html=1;points=[];perimeter=orthogonalPerimeter;outlineConnect=0;targetShapes=umlLifeline;portConstraint=eastwest;newEdgeStyle={&quot;edgeStyle&quot;:&quot;elbowEdgeStyle&quot;,&quot;elbow&quot;:&quot;vertical&quot;,&quot;curved&quot;:0,&quot;rounded&quot;:0};fillColor=#CCFFFF;rounded=1;" parent="NsC5bOykcp2ZfEjEzcXH-54" vertex="1">
          <mxGeometry x="55" y="70" width="10" height="440" as="geometry" />
        </mxCell>
        <mxCell id="NsC5bOykcp2ZfEjEzcXH-56" value="Back-end&lt;br&gt;(Api rest)" style="shape=umlLifeline;perimeter=lifelinePerimeter;whiteSpace=wrap;html=1;container=1;dropTarget=0;collapsible=0;recursiveResize=0;outlineConnect=0;portConstraint=eastwest;newEdgeStyle={&quot;edgeStyle&quot;:&quot;elbowEdgeStyle&quot;,&quot;elbow&quot;:&quot;vertical&quot;,&quot;curved&quot;:0,&quot;rounded&quot;:0};size=40;rounded=1;fillColor=#FFFFCC;" parent="1" vertex="1">
          <mxGeometry x="480" y="40" width="120" height="540" as="geometry" />
        </mxCell>
        <mxCell id="NsC5bOykcp2ZfEjEzcXH-57" value="" style="html=1;points=[];perimeter=orthogonalPerimeter;outlineConnect=0;targetShapes=umlLifeline;portConstraint=eastwest;newEdgeStyle={&quot;edgeStyle&quot;:&quot;elbowEdgeStyle&quot;,&quot;elbow&quot;:&quot;vertical&quot;,&quot;curved&quot;:0,&quot;rounded&quot;:0};fillColor=#FFFFCC;rounded=1;glass=0;" parent="NsC5bOykcp2ZfEjEzcXH-56" vertex="1">
          <mxGeometry x="55" y="90" width="10" height="420" as="geometry" />
        </mxCell>
        <mxCell id="NsC5bOykcp2ZfEjEzcXH-63" value="" style="html=1;points=[];perimeter=orthogonalPerimeter;outlineConnect=0;targetShapes=umlLifeline;portConstraint=eastwest;newEdgeStyle={&quot;edgeStyle&quot;:&quot;elbowEdgeStyle&quot;,&quot;elbow&quot;:&quot;vertical&quot;,&quot;curved&quot;:0,&quot;rounded&quot;:0};fillColor=#FFFF99;" parent="NsC5bOykcp2ZfEjEzcXH-56" vertex="1">
          <mxGeometry x="60" y="130" width="10" height="90" as="geometry" />
        </mxCell>
        <mxCell id="NsC5bOykcp2ZfEjEzcXH-64" value="3: vérifier&lt;br&gt;accessToken" style="html=1;align=left;spacingLeft=2;endArrow=block;rounded=0;edgeStyle=orthogonalEdgeStyle;curved=0;rounded=0;" parent="NsC5bOykcp2ZfEjEzcXH-56" target="NsC5bOykcp2ZfEjEzcXH-63" edge="1">
          <mxGeometry x="-0.3684" relative="1" as="geometry">
            <mxPoint x="65" y="100" as="sourcePoint" />
            <Array as="points">
              <mxPoint x="95" y="100" />
              <mxPoint x="95" y="140" />
            </Array>
            <mxPoint as="offset" />
          </mxGeometry>
        </mxCell>
        <mxCell id="NsC5bOykcp2ZfEjEzcXH-59" value="Database&lt;br&gt;(MySQL)" style="shape=umlLifeline;perimeter=lifelinePerimeter;whiteSpace=wrap;html=1;container=1;dropTarget=0;collapsible=0;recursiveResize=0;outlineConnect=0;portConstraint=eastwest;newEdgeStyle={&quot;edgeStyle&quot;:&quot;elbowEdgeStyle&quot;,&quot;elbow&quot;:&quot;vertical&quot;,&quot;curved&quot;:0,&quot;rounded&quot;:0};size=40;rounded=1;fillColor=#FFCCE6;" parent="1" vertex="1">
          <mxGeometry x="680" y="40" width="120" height="540" as="geometry" />
        </mxCell>
        <mxCell id="NsC5bOykcp2ZfEjEzcXH-60" value="" style="html=1;points=[];perimeter=orthogonalPerimeter;outlineConnect=0;targetShapes=umlLifeline;portConstraint=eastwest;newEdgeStyle={&quot;edgeStyle&quot;:&quot;elbowEdgeStyle&quot;,&quot;elbow&quot;:&quot;vertical&quot;,&quot;curved&quot;:0,&quot;rounded&quot;:0};fillColor=#FFCCE6;rounded=1;arcSize=50;" parent="NsC5bOykcp2ZfEjEzcXH-59" vertex="1">
          <mxGeometry x="55" y="390" width="10" height="80" as="geometry" />
        </mxCell>
        <mxCell id="NsC5bOykcp2ZfEjEzcXH-61" value="1: affichage d&#39;une page&lt;br&gt;suite refresh" style="html=1;verticalAlign=bottom;startArrow=oval;startFill=1;endArrow=block;startSize=8;edgeStyle=elbowEdgeStyle;elbow=vertical;curved=0;rounded=0;" parent="1" target="NsC5bOykcp2ZfEjEzcXH-55" edge="1">
          <mxGeometry width="60" relative="1" as="geometry">
            <mxPoint x="140" y="120" as="sourcePoint" />
            <mxPoint x="200" y="120" as="targetPoint" />
          </mxGeometry>
        </mxCell>
        <mxCell id="NsC5bOykcp2ZfEjEzcXH-62" value="2: requete https avec les cookies&lt;br&gt;(/auth)" style="html=1;verticalAlign=bottom;startArrow=oval;startFill=1;endArrow=block;startSize=8;edgeStyle=elbowEdgeStyle;elbow=vertical;curved=0;rounded=0;" parent="1" source="NsC5bOykcp2ZfEjEzcXH-55" target="NsC5bOykcp2ZfEjEzcXH-57" edge="1">
          <mxGeometry width="60" relative="1" as="geometry">
            <mxPoint x="350" y="140" as="sourcePoint" />
            <mxPoint x="410" y="140" as="targetPoint" />
            <Array as="points">
              <mxPoint x="490" y="140" />
            </Array>
          </mxGeometry>
        </mxCell>
        <mxCell id="NsC5bOykcp2ZfEjEzcXH-67" value="4: retour positif" style="html=1;verticalAlign=bottom;endArrow=open;dashed=1;endSize=8;edgeStyle=elbowEdgeStyle;elbow=vertical;curved=0;rounded=0;" parent="1" source="NsC5bOykcp2ZfEjEzcXH-63" target="NsC5bOykcp2ZfEjEzcXH-55" edge="1">
          <mxGeometry relative="1" as="geometry">
            <mxPoint x="510" y="200" as="sourcePoint" />
            <mxPoint x="430" y="200" as="targetPoint" />
            <Array as="points">
              <mxPoint x="480" y="190" />
            </Array>
          </mxGeometry>
        </mxCell>
        <mxCell id="NsC5bOykcp2ZfEjEzcXH-68" value="5: Utilisateur loggé" style="html=1;verticalAlign=bottom;endArrow=open;dashed=1;endSize=8;edgeStyle=elbowEdgeStyle;elbow=vertical;curved=0;rounded=0;entryX=1;entryY=0.5;entryDx=0;entryDy=0;" parent="1" source="NsC5bOykcp2ZfEjEzcXH-55" target="NsC5bOykcp2ZfEjEzcXH-69" edge="1">
          <mxGeometry relative="1" as="geometry">
            <mxPoint x="280" y="200" as="sourcePoint" />
            <mxPoint x="200" y="200" as="targetPoint" />
          </mxGeometry>
        </mxCell>
        <mxCell id="NsC5bOykcp2ZfEjEzcXH-69" value="" style="ellipse;html=1;shape=endState;fillColor=#000000;strokeColor=#ff0000;" parent="1" vertex="1">
          <mxGeometry x="130" y="190" width="20" height="20" as="geometry" />
        </mxCell>
        <mxCell id="NsC5bOykcp2ZfEjEzcXH-71" value="6: retour négatif" style="html=1;verticalAlign=bottom;endArrow=open;dashed=1;endSize=8;edgeStyle=elbowEdgeStyle;elbow=vertical;curved=0;rounded=0;" parent="1" source="NsC5bOykcp2ZfEjEzcXH-63" target="NsC5bOykcp2ZfEjEzcXH-55" edge="1">
          <mxGeometry relative="1" as="geometry">
            <mxPoint x="535" y="250" as="sourcePoint" />
            <mxPoint x="370" y="250" as="targetPoint" />
            <Array as="points">
              <mxPoint x="475" y="250" />
            </Array>
          </mxGeometry>
        </mxCell>
        <mxCell id="NsC5bOykcp2ZfEjEzcXH-73" value="" style="html=1;points=[];perimeter=orthogonalPerimeter;outlineConnect=0;targetShapes=umlLifeline;portConstraint=eastwest;newEdgeStyle={&quot;edgeStyle&quot;:&quot;elbowEdgeStyle&quot;,&quot;elbow&quot;:&quot;vertical&quot;,&quot;curved&quot;:0,&quot;rounded&quot;:0};fillColor=#99FFFF;" parent="1" vertex="1">
          <mxGeometry x="340" y="280" width="10" height="70" as="geometry" />
        </mxCell>
        <mxCell id="NsC5bOykcp2ZfEjEzcXH-74" value="7: pas d&#39;accessToken&lt;br&gt;tente avec un refreshToken" style="html=1;align=left;spacingLeft=2;endArrow=block;rounded=0;edgeStyle=orthogonalEdgeStyle;curved=0;rounded=0;" parent="1" target="NsC5bOykcp2ZfEjEzcXH-73" edge="1">
          <mxGeometry relative="1" as="geometry">
            <mxPoint x="345" y="260" as="sourcePoint" />
            <Array as="points">
              <mxPoint x="375" y="290" />
            </Array>
          </mxGeometry>
        </mxCell>
        <mxCell id="NsC5bOykcp2ZfEjEzcXH-76" value="8: requete https avec les cookies&lt;br&gt;(/refresh)" style="html=1;verticalAlign=bottom;startArrow=oval;startFill=1;endArrow=block;startSize=8;edgeStyle=elbowEdgeStyle;elbow=vertical;curved=0;rounded=0;" parent="1" edge="1">
          <mxGeometry width="60" relative="1" as="geometry">
            <mxPoint x="350" y="330" as="sourcePoint" />
            <mxPoint x="540" y="330" as="targetPoint" />
            <Array as="points">
              <mxPoint x="495" y="330" />
            </Array>
          </mxGeometry>
        </mxCell>
        <mxCell id="NsC5bOykcp2ZfEjEzcXH-77" value="" style="html=1;points=[];perimeter=orthogonalPerimeter;outlineConnect=0;targetShapes=umlLifeline;portConstraint=eastwest;newEdgeStyle={&quot;edgeStyle&quot;:&quot;elbowEdgeStyle&quot;,&quot;elbow&quot;:&quot;vertical&quot;,&quot;curved&quot;:0,&quot;rounded&quot;:0};fillColor=#FFFF66;" parent="1" vertex="1">
          <mxGeometry x="540" y="350" width="10" height="160" as="geometry" />
        </mxCell>
        <mxCell id="NsC5bOykcp2ZfEjEzcXH-78" value="9: vérifier&lt;br&gt;refreshToken" style="html=1;align=left;spacingLeft=2;endArrow=block;rounded=0;edgeStyle=orthogonalEdgeStyle;curved=0;rounded=0;" parent="1" target="NsC5bOykcp2ZfEjEzcXH-77" edge="1">
          <mxGeometry relative="1" as="geometry">
            <mxPoint x="545" y="320" as="sourcePoint" />
            <Array as="points">
              <mxPoint x="545" y="330" />
              <mxPoint x="575" y="330" />
              <mxPoint x="575" y="370" />
            </Array>
          </mxGeometry>
        </mxCell>
        <mxCell id="NsC5bOykcp2ZfEjEzcXH-80" value="10: retour négatif" style="html=1;verticalAlign=bottom;endArrow=open;dashed=1;endSize=8;edgeStyle=elbowEdgeStyle;elbow=vertical;curved=0;rounded=0;" parent="1" source="NsC5bOykcp2ZfEjEzcXH-77" target="NsC5bOykcp2ZfEjEzcXH-55" edge="1">
          <mxGeometry x="0.002" relative="1" as="geometry">
            <mxPoint x="535" y="404.62" as="sourcePoint" />
            <mxPoint x="340" y="404.62" as="targetPoint" />
            <Array as="points">
              <mxPoint x="480" y="390" />
              <mxPoint x="470" y="390" />
              <mxPoint x="470" y="404.62" />
            </Array>
            <mxPoint as="offset" />
          </mxGeometry>
        </mxCell>
        <mxCell id="NsC5bOykcp2ZfEjEzcXH-83" value="11: Utilisateur non loggé" style="html=1;verticalAlign=bottom;endArrow=open;dashed=1;endSize=8;edgeStyle=elbowEdgeStyle;elbow=vertical;curved=0;rounded=0;entryX=1;entryY=0.5;entryDx=0;entryDy=0;" parent="1" source="NsC5bOykcp2ZfEjEzcXH-84" edge="1">
          <mxGeometry y="103" relative="1" as="geometry">
            <mxPoint x="325" y="410" as="sourcePoint" />
            <mxPoint x="140" y="410" as="targetPoint" />
            <mxPoint y="-7" as="offset" />
          </mxGeometry>
        </mxCell>
        <mxCell id="NsC5bOykcp2ZfEjEzcXH-85" value="" style="html=1;verticalAlign=bottom;endArrow=open;dashed=1;endSize=8;edgeStyle=elbowEdgeStyle;elbow=vertical;curved=0;rounded=0;entryX=1;entryY=0.5;entryDx=0;entryDy=0;" parent="1" source="NsC5bOykcp2ZfEjEzcXH-55" target="NsC5bOykcp2ZfEjEzcXH-84" edge="1">
          <mxGeometry relative="1" as="geometry">
            <mxPoint x="325" y="410" as="sourcePoint" />
            <mxPoint x="140" y="410" as="targetPoint" />
            <Array as="points" />
          </mxGeometry>
        </mxCell>
        <mxCell id="NsC5bOykcp2ZfEjEzcXH-84" value="" style="ellipse;html=1;shape=endState;fillColor=#000000;strokeColor=#ff0000;" parent="1" vertex="1">
          <mxGeometry x="130" y="390" width="20" height="20" as="geometry" />
        </mxCell>
        <mxCell id="NsC5bOykcp2ZfEjEzcXH-87" value="12: retrouver les dernières &lt;br&gt;infos en DB" style="html=1;verticalAlign=bottom;startArrow=oval;startFill=1;endArrow=block;startSize=8;edgeStyle=elbowEdgeStyle;elbow=vertical;curved=0;rounded=0;" parent="1" target="NsC5bOykcp2ZfEjEzcXH-60" edge="1">
          <mxGeometry x="-0.0253" width="60" relative="1" as="geometry">
            <mxPoint x="550" y="440" as="sourcePoint" />
            <mxPoint x="610" y="440" as="targetPoint" />
            <mxPoint as="offset" />
          </mxGeometry>
        </mxCell>
        <mxCell id="NsC5bOykcp2ZfEjEzcXH-88" value="13: retour positif" style="html=1;verticalAlign=bottom;endArrow=open;dashed=1;endSize=8;edgeStyle=elbowEdgeStyle;elbow=vertical;curved=0;rounded=0;" parent="1" source="NsC5bOykcp2ZfEjEzcXH-60" target="NsC5bOykcp2ZfEjEzcXH-77" edge="1">
          <mxGeometry relative="1" as="geometry">
            <mxPoint x="670" y="480" as="sourcePoint" />
            <mxPoint x="590" y="480" as="targetPoint" />
            <Array as="points">
              <mxPoint x="580" y="490" />
              <mxPoint x="680" y="480" />
              <mxPoint x="660" y="470" />
            </Array>
          </mxGeometry>
        </mxCell>
        <mxCell id="NsC5bOykcp2ZfEjEzcXH-90" value="14: renvoi en cookie d&#39;un&lt;br&gt;accessToken et d&#39;un&lt;br&gt;refreshToken (httpOnly)" style="html=1;verticalAlign=bottom;endArrow=open;dashed=1;endSize=8;edgeStyle=elbowEdgeStyle;elbow=vertical;curved=0;rounded=0;" parent="1" source="NsC5bOykcp2ZfEjEzcXH-77" target="NsC5bOykcp2ZfEjEzcXH-55" edge="1">
          <mxGeometry relative="1" as="geometry">
            <mxPoint x="460" y="500" as="sourcePoint" />
            <mxPoint x="380" y="500" as="targetPoint" />
            <Array as="points">
              <mxPoint x="390" y="500" />
            </Array>
          </mxGeometry>
        </mxCell>
        <mxCell id="NsC5bOykcp2ZfEjEzcXH-91" value="15: Utilisateur loggé" style="html=1;verticalAlign=bottom;endArrow=open;dashed=1;endSize=8;edgeStyle=elbowEdgeStyle;elbow=vertical;curved=0;rounded=0;entryX=1;entryY=0.5;entryDx=0;entryDy=0;" parent="1" source="NsC5bOykcp2ZfEjEzcXH-92" edge="1">
          <mxGeometry x="1" y="104" relative="1" as="geometry">
            <mxPoint x="325" y="510" as="sourcePoint" />
            <mxPoint x="140" y="510" as="targetPoint" />
            <mxPoint as="offset" />
          </mxGeometry>
        </mxCell>
        <mxCell id="NsC5bOykcp2ZfEjEzcXH-94" value="" style="html=1;verticalAlign=bottom;endArrow=open;dashed=1;endSize=8;edgeStyle=elbowEdgeStyle;elbow=vertical;curved=0;rounded=0;entryX=1;entryY=0.5;entryDx=0;entryDy=0;" parent="1" source="NsC5bOykcp2ZfEjEzcXH-55" target="NsC5bOykcp2ZfEjEzcXH-92" edge="1">
          <mxGeometry relative="1" as="geometry">
            <mxPoint x="335" y="510" as="sourcePoint" />
            <mxPoint x="140" y="510" as="targetPoint" />
          </mxGeometry>
        </mxCell>
        <mxCell id="NsC5bOykcp2ZfEjEzcXH-92" value="" style="ellipse;html=1;shape=endState;fillColor=#000000;strokeColor=#ff0000;" parent="1" vertex="1">
          <mxGeometry x="130" y="500" width="20" height="20" as="geometry" />
        </mxCell>
      </root>
    </mxGraphModel>
  </diagram>
</mxfile>
